<?xml version="1.0" encoding="UTF-8" standalone="no"?>
<svg
   xmlns:dc="http://purl.org/dc/elements/1.1/"
   xmlns:cc="http://creativecommons.org/ns#"
   xmlns:rdf="http://www.w3.org/1999/02/22-rdf-syntax-ns#"
   xmlns:svg="http://www.w3.org/2000/svg"
   xmlns="http://www.w3.org/2000/svg"
   xmlns:sodipodi="http://sodipodi.sourceforge.net/DTD/sodipodi-0.dtd"
   xmlns:inkscape="http://www.inkscape.org/namespaces/inkscape"
   version="1.1"
   viewBox="0 0 452.00001 452.00001"
   enable-background="new 0 0 21.9 21.9"
   id="svg4"
   sodipodi:docname="cancel.svg"
   width="452"
   height="452"
   inkscape:version="0.92.3 (2405546, 2018-03-11)">
  <metadata
     id="metadata10">
    <rdf:RDF>
      <cc:Work
         rdf:about="">
        <dc:format>image/svg+xml</dc:format>
        <dc:type
           rdf:resource="http://purl.org/dc/dcmitype/StillImage" />
        <dc:title></dc:title>
      </cc:Work>
    </rdf:RDF>
  </metadata>
  <defs
     id="defs8" />
  <sodipodi:namedview
     pagecolor="#ffffff"
     bordercolor="#666666"
     borderopacity="1"
     objecttolerance="10"
     gridtolerance="10"
     guidetolerance="10"
     inkscape:pageopacity="0"
     inkscape:pageshadow="2"
     inkscape:window-width="1920"
     inkscape:window-height="983"
     id="namedview6"
     showgrid="false"
     fit-margin-top="0"
     fit-margin-left="0"
     fit-margin-right="0"
     fit-margin-bottom="0"
     inkscape:zoom="0.67351599"
     inkscape:cx="307.04081"
     inkscape:cy="207.45514"
     inkscape:window-x="0"
     inkscape:window-y="25"
     inkscape:window-maximized="1"
     inkscape:current-layer="svg4" />
  <path
     d="m 291.0137,233.22374 c -4.12786,-4.12785 -4.12786,-10.31963 0,-14.44748 L 445.80822,63.98174 C 449.93607,59.85388 452,53.6621 452,49.53425 452,45.40639 449.93607,39.21461 445.80822,35.08676 L 416.91324,6.19178 C 412.78539,2.06393 406.59361,0 402.46575,0 396.27397,0 392.14612,2.06393 388.01826,6.19178 L 233.22374,160.9863 c -4.12785,4.12786 -10.31963,4.12786 -14.44748,0 L 63.981735,6.19178 C 59.853881,2.06393 53.6621,0 49.534247,0 45.406393,0 39.214612,2.06393 35.086758,6.19178 L 6.1917808,35.08676 C 2.0639269,39.21461 0,45.40639 0,49.53425 0,53.6621 2.0639269,59.85388 6.1917808,63.98174 L 160.9863,218.77626 c 4.12786,4.12785 4.12786,10.31963 0,14.44748 L 6.1917808,388.01827 C 2.0639269,392.14612 0,398.3379 0,402.46575 c 0,4.12786 2.0639269,10.31964 6.1917808,14.44749 L 35.086758,445.80822 C 39.214612,449.93607 45.406393,452 49.534247,452 c 4.127853,0 10.319634,-2.06393 14.447488,-6.19178 L 218.77626,291.0137 c 4.12785,-4.12786 10.31963,-4.12786 14.44748,0 L 388.01826,445.80822 C 392.14612,449.93607 398.3379,452 402.46575,452 c 4.12786,0 10.31964,-2.06393 14.44749,-6.19178 l 28.89498,-28.89498 C 449.93607,412.78539 452,406.59361 452,402.46575 c 0,-4.12785 -2.06393,-10.31963 -6.19178,-14.44748 z"
     id="path2"
     inkscape:connector-curvature="0"
     style="stroke-width:20.63926888" />
</svg>
