<?xml version="1.0" encoding="UTF-8" standalone="no"?>
<!-- Generator: Adobe Illustrator 16.0.0, SVG Export Plug-In . SVG Version: 6.00 Build 0)  -->

<svg
   xmlns:dc="http://purl.org/dc/elements/1.1/"
   xmlns:cc="http://creativecommons.org/ns#"
   xmlns:rdf="http://www.w3.org/1999/02/22-rdf-syntax-ns#"
   xmlns:svg="http://www.w3.org/2000/svg"
   xmlns="http://www.w3.org/2000/svg"
   xmlns:sodipodi="http://sodipodi.sourceforge.net/DTD/sodipodi-0.dtd"
   xmlns:inkscape="http://www.inkscape.org/namespaces/inkscape"
   version="1.1"
   id="Capa_1"
   x="0px"
   y="0px"
   width="452"
   height="452"
   viewBox="0 0 452.00001 452.00001"
   xml:space="preserve"
   sodipodi:docname="group.svg"
   inkscape:version="0.92.3 (2405546, 2018-03-11)"><metadata
   id="metadata41"><rdf:RDF><cc:Work
       rdf:about=""><dc:format>image/svg+xml</dc:format><dc:type
         rdf:resource="http://purl.org/dc/dcmitype/StillImage" /><dc:title></dc:title></cc:Work></rdf:RDF></metadata><defs
   id="defs39" /><sodipodi:namedview
   pagecolor="#ffffff"
   bordercolor="#666666"
   borderopacity="1"
   objecttolerance="10"
   gridtolerance="10"
   guidetolerance="10"
   inkscape:pageopacity="0"
   inkscape:pageshadow="2"
   inkscape:window-width="1920"
   inkscape:window-height="1056"
   id="namedview37"
   showgrid="false"
   inkscape:zoom="0.59597298"
   inkscape:cx="645.62569"
   inkscape:cy="81.520989"
   inkscape:window-x="1920"
   inkscape:window-y="0"
   inkscape:window-maximized="1"
   inkscape:current-layer="Capa_1" />
<g
   id="g4"
   transform="matrix(12.342504,0,0,12.342504,10,20.213951)">
	<path
   d="m 35.001,26.705 c 0,-2.505 -1.651,-4.636 -3.968,-5.468 0.535,-0.523 0.919,-1.312 1.094,-2.405 0.234,0.043 0.546,-0.201 0.652,-0.61 0.111,-0.421 0.238,-1.128 0,-1.189 -0.071,-0.019 -0.146,-0.004 -0.219,0.033 v -1.17 c 0.039,-1.271 -0.136,-2.499 -1.521,-3.031 -0.253,-0.521 -0.271,-0.994 -0.271,-0.994 -0.623,0.562 -2.994,0.79 -2.994,0.79 l 0.027,0.008 c -3.004,0.309 -2.57,1.389 -2.57,3.228 v 1.17 c -0.072,-0.037 -0.146,-0.052 -0.219,-0.033 -0.24,0.062 -0.166,0.743 -0.057,1.164 0.107,0.413 0.477,0.685 0.712,0.637 0.181,1.149 0.539,1.917 1.033,2.418 -0.917,0.335 -1.722,0.881 -2.365,1.565 -0.979,-1.071 -2.228,-1.916 -3.647,-2.428 0.793,-0.773 1.361,-1.94 1.623,-3.564 0.351,0.062 0.81,-0.298 0.967,-0.905 0.164,-0.624 0.354,-1.672 -0.002,-1.767 -0.104,-0.028 -0.215,-0.007 -0.322,0.049 V 12.469 C 23.013,10.583 22.754,8.763 20.696,7.975 20.321,7.203 20.298,6.5 20.298,6.5 c -0.926,0.834 -4.44,1.172 -4.44,1.172 l 0.04,0.011 c -4.455,0.457 -3.812,2.059 -3.812,4.786 v 1.734 c -0.109,-0.056 -0.218,-0.077 -0.324,-0.049 -0.356,0.095 -0.248,1.103 -0.084,1.728 0.16,0.612 0.707,1.015 1.057,0.942 0.266,1.707 0.798,2.842 1.531,3.585 -1.401,0.513 -2.632,1.351 -3.601,2.409 -0.652,-0.691 -1.467,-1.243 -2.397,-1.577 0.535,-0.523 0.919,-1.312 1.095,-2.405 0.235,0.043 0.545,-0.201 0.652,-0.609 0.111,-0.422 0.239,-1.128 -0.001,-1.19 C 9.943,17.018 9.869,17.033 9.796,17.07 V 15.9 C 9.836,14.629 9.661,13.401 8.275,12.869 8.023,12.348 8.005,11.875 8.005,11.875 7.38,12.437 5.011,12.665 5.011,12.665 l 0.027,0.008 c -3.005,0.309 -2.571,1.389 -2.571,3.228 v 1.17 C 2.394,17.034 2.32,17.019 2.248,17.038 2.008,17.1 2.081,17.782 2.192,18.203 c 0.108,0.413 0.477,0.684 0.712,0.636 0.18,1.15 0.539,1.917 1.033,2.418 C 1.637,22.097 0,24.218 0,26.711 H 8.63 C 8.502,27.289 8.429,27.888 8.429,28.502 H 26.57 c 0,-0.614 -0.072,-1.213 -0.2,-1.791 h 8.631 z"
   id="path2"
   inkscape:connector-curvature="0" />
</g>
<g
   id="g6"
   transform="translate(0,416.999)">
</g>
<g
   id="g8"
   transform="translate(0,416.999)">
</g>
<g
   id="g10"
   transform="translate(0,416.999)">
</g>
<g
   id="g12"
   transform="translate(0,416.999)">
</g>
<g
   id="g14"
   transform="translate(0,416.999)">
</g>
<g
   id="g16"
   transform="translate(0,416.999)">
</g>
<g
   id="g18"
   transform="translate(0,416.999)">
</g>
<g
   id="g20"
   transform="translate(0,416.999)">
</g>
<g
   id="g22"
   transform="translate(0,416.999)">
</g>
<g
   id="g24"
   transform="translate(0,416.999)">
</g>
<g
   id="g26"
   transform="translate(0,416.999)">
</g>
<g
   id="g28"
   transform="translate(0,416.999)">
</g>
<g
   id="g30"
   transform="translate(0,416.999)">
</g>
<g
   id="g32"
   transform="translate(0,416.999)">
</g>
<g
   id="g34"
   transform="translate(0,416.999)">
</g>
</svg>