<?xml version="1.0" encoding="UTF-8" standalone="no"?>
<!-- Generator: Adobe Illustrator 16.0.0, SVG Export Plug-In . SVG Version: 6.00 Build 0)  -->

<svg
   xmlns:dc="http://purl.org/dc/elements/1.1/"
   xmlns:cc="http://creativecommons.org/ns#"
   xmlns:rdf="http://www.w3.org/1999/02/22-rdf-syntax-ns#"
   xmlns:svg="http://www.w3.org/2000/svg"
   xmlns="http://www.w3.org/2000/svg"
   xmlns:sodipodi="http://sodipodi.sourceforge.net/DTD/sodipodi-0.dtd"
   xmlns:inkscape="http://www.inkscape.org/namespaces/inkscape"
   version="1.1"
   id="Capa_1"
   x="0px"
   y="0px"
   width="452"
   height="452"
   viewBox="0 0 452 452"
   xml:space="preserve"
   sodipodi:docname="menu-button-of-three-horizontal-lines.svg"
   inkscape:version="0.92.3 (2405546, 2018-03-11)"><metadata
   id="metadata45"><rdf:RDF><cc:Work
       rdf:about=""><dc:format>image/svg+xml</dc:format><dc:type
         rdf:resource="http://purl.org/dc/dcmitype/StillImage" /><dc:title></dc:title></cc:Work></rdf:RDF></metadata><defs
   id="defs43" /><sodipodi:namedview
   pagecolor="#ffffff"
   bordercolor="#666666"
   borderopacity="1"
   objecttolerance="10"
   gridtolerance="10"
   guidetolerance="10"
   inkscape:pageopacity="0"
   inkscape:pageshadow="2"
   inkscape:window-width="1920"
   inkscape:window-height="1056"
   id="namedview41"
   showgrid="false"
   inkscape:zoom="0.9516129"
   inkscape:cx="175.80644"
   inkscape:cy="83.137576"
   inkscape:window-x="1920"
   inkscape:window-y="0"
   inkscape:window-maximized="1"
   inkscape:current-layer="Capa_1" />
<g
   id="g8"
   transform="matrix(3.3870968,0,0,3.3870968,11,16.322578)">
	<path
   d="M 112,6 H 12 C 5.4,6 0,11.4 0,18 0,24.6 5.4,30 12,30 h 100 c 6.6,0 12,-5.4 12,-12 0,-6.6 -5.4,-12 -12,-12 z"
   id="path2"
   inkscape:connector-curvature="0" />
	<path
   d="M 112,50 H 12 C 5.4,50 0,55.4 0,62 0,68.6 5.4,74 12,74 h 100 c 6.6,0 12,-5.4 12,-12 0,-6.6 -5.4,-12 -12,-12 z"
   id="path4"
   inkscape:connector-curvature="0" />
	<path
   d="M 112,94 H 12 c -6.6,0 -12,5.4 -12,12 0,6.6 5.4,12 12,12 h 100 c 6.6,0 12,-5.4 12,-12 0,-6.6 -5.4,-12 -12,-12 z"
   id="path6"
   inkscape:connector-curvature="0" />
</g>
<g
   id="g10"
   transform="translate(0,328)">
</g>
<g
   id="g12"
   transform="translate(0,328)">
</g>
<g
   id="g14"
   transform="translate(0,328)">
</g>
<g
   id="g16"
   transform="translate(0,328)">
</g>
<g
   id="g18"
   transform="translate(0,328)">
</g>
<g
   id="g20"
   transform="translate(0,328)">
</g>
<g
   id="g22"
   transform="translate(0,328)">
</g>
<g
   id="g24"
   transform="translate(0,328)">
</g>
<g
   id="g26"
   transform="translate(0,328)">
</g>
<g
   id="g28"
   transform="translate(0,328)">
</g>
<g
   id="g30"
   transform="translate(0,328)">
</g>
<g
   id="g32"
   transform="translate(0,328)">
</g>
<g
   id="g34"
   transform="translate(0,328)">
</g>
<g
   id="g36"
   transform="translate(0,328)">
</g>
<g
   id="g38"
   transform="translate(0,328)">
</g>
</svg>